<svg xmlns="http://www.w3.org/2000/svg" viewBox="0 0 479.98 167.73"><defs><style>.cls-1{fill:#cc2f51;}.cls-2{fill:#a050b7;}</style></defs><title>logo</title><g id="Camada_2" data-name="Camada 2"><g id="Camada_1-2" data-name="Camada 1"><path class="cls-1" d="M34.28,107.49a1.46,1.46,0,0,1-1.19-.69L5.94,70.41v35.71c0,.91-.48,1.37-1.43,1.37H1.37A1.21,1.21,0,0,1,0,106.12V62.73a1.46,1.46,0,0,1,.37-1,1.29,1.29,0,0,1,1-.4H5.54a1.54,1.54,0,0,1,1.3.68L33.31,97.16V62.45a1.24,1.24,0,0,1,1.37-1.15h3.14a1.64,1.64,0,0,1,1,.37,1.18,1.18,0,0,1,.49,1v43.45c0,.91-.51,1.37-1.53,1.37Z"/><path class="cls-1" d="M53,106.34a2,2,0,0,1-.62.84,1.62,1.62,0,0,1-1,.31H48.06c-1,0-1.44-.36-1.44-1.09a3.53,3.53,0,0,1,0-.36,2,2,0,0,1,0-.26c0-.08,0-.16.06-.22l18-43.11.15-.36a1.51,1.51,0,0,1,.25-.37,1.35,1.35,0,0,1,.45-.3,2.15,2.15,0,0,1,.79-.12H68.4a2.05,2.05,0,0,1,.76.12,1.35,1.35,0,0,1,.45.3,1.51,1.51,0,0,1,.25.37l.15.36,17.8,43.11.06.31c0,.11,0,.2.06.3a1.11,1.11,0,0,1,0,.23c0,.73-.48,1.09-1.43,1.09h-3.3a1.61,1.61,0,0,1-1-.31,2.07,2.07,0,0,1-.63-.84l-3.42-8.56H56.33q-1.09,2.77-2,5C53.74,104.29,53.29,105.47,53,106.34Zm5.82-14.59H75.77l-8.4-21.27Z"/><path class="cls-2" d="M136,45.13c4.64-2.41,13.56,2.6,12.07,4.27-2.23,2.42-3.16,7.06-4.09,10l-3.9,11.71c-3.9,11.7-7.61,23.59-11.51,35.29-3.72,11.52-7.25,23-12.45,34-5.2,10.77-14.49,27.3-28.24,27.3a14.44,14.44,0,0,1-2.78-.18,7.76,7.76,0,0,1-5.2-3,9.6,9.6,0,0,1-1.3-5,47.83,47.83,0,0,1,.55-5,10.55,10.55,0,0,0,8.18,1.68,19.17,19.17,0,0,0,7.61-3.53c5-3.91,8.18-9.85,11-15.42a212.91,212.91,0,0,0,8.73-21.36q3.63-10,6.69-20.07c-3.71,7.62-11,19.69-19.32,19.69-.74,0-8,.93-9.47-13.18-2-19.14,16.53-53.69,31.58-53.69a12.49,12.49,0,0,1,9.47,4.46c.56-1.67,1.12-3.35,1.67-5,.19-.55.56-1.85,1.12-2.23Zm-7.25,23.41q1.67-6.14,3.34-12.26a8.38,8.38,0,0,0-3.71-.93c-13.38,0-30.47,38.45-24.89,47.55,4.27,6.69,19.87-19.32,21.92-22.85,1.11-3.71,2.23-7.43,3.16-11.14Z"/><path class="cls-2" d="M202.28,77.45s-14.49,38.08-29.72,38.08c-8.36,0-10.78-6.68-10-15.6-3.72,7.43-9.66,16.16-16.72,16.35-.74,0-7.8,1.11-9.66-13-2.6-19.13,14.67-54.24,29.72-54.8,6.32-.18,11.33,5,13,9.85,2.42-3.53,4.46-5.76,5.58-5.76,5.76,0,9.1,5,9.1,5-7.25,4.64-25.82,50.52-17.09,50.52,5.57,0,22.1-30.46,22.1-30.46Zm-36.22,7.81a129.74,129.74,0,0,1,11.7-25.83c-1.67-1.48-4.46-3.53-7.25-3.53-11,0-29.72,39.39-22.84,48.12,3.9,5,13.56-10.41,18.2-18.76Z"/><path class="cls-2" d="M240,50c3.9-.93,10.21,2.23,9.47,3A44.78,44.78,0,0,0,236.64,83.4a6.85,6.85,0,0,1-6.5-7.25c0-3.53,1.11-8,2.42-12.26-9.48,6-20.07,23.78-28.43,52.2l-.37,1.12c-1.11,0-2.41.18-3.16.18a8.69,8.69,0,0,1-4.83-.93,6.32,6.32,0,0,1-2.22-2.23,18.12,18.12,0,0,1-2.05-6.13,53.72,53.72,0,0,1-.18-5.38c.18-2,.37-4.09.74-6.13.37-2.23.93-4.46,1.49-6.69s1.3-4.46,2-6.69,1.67-4.46,2.6-6.69L201,69.84q1.38-3.07,2.78-6.13c.93-1.86,1.86-3.53,2.79-5.2l2.78-4.46a20.48,20.48,0,0,1,2.42-3.16,7.14,7.14,0,0,1,1.86-1.49h.56c5.75,0,9.1,5,9.1,5-.93-.37-7.06,9.84-7.62,10.77a126.55,126.55,0,0,0-8.92,21.37,89.28,89.28,0,0,0-2.6,11.7C213.24,76,223.82,58.69,238.5,49.77a4,4,0,0,1,1.49-.92c.18,0,.37-.19.55-.19v.19Z"/><path class="cls-2" d="M305.19,77.45s-14.49,38.08-29.73,38.08c-8.35,0-10.77-6.68-10-15.6-3.71,7.43-9.66,16.16-16.72,16.35-.74,0-7.8,1.11-9.65-13-2.6-19.13,14.67-54.24,29.72-54.8,6.31-.18,11.33,5,13,9.85,2.42-3.53,4.46-5.76,5.57-5.76,5.76,0,9.11,5,9.11,5-7.25,4.64-25.83,50.52-17.09,50.52,5.57,0,22.1-30.46,22.1-30.46ZM269,85.26a129.72,129.72,0,0,1,11.71-25.83C279,58,276.21,55.9,273.42,55.9c-11,0-29.72,39.39-22.85,48.12,3.9,5,13.56-10.41,18.21-18.76Z"/><path class="cls-2" d="M338.06,45.13c4.65-2.41,13.56,2.6,12.08,4.27-2.23,2.42-3.16,7.06-4.09,10l-3.9,11.71c-3.9,11.7-7.62,23.59-11.52,35.29-3.71,11.52-7.24,23-12.44,34C313,151.2,303.7,167.73,290,167.73a14.54,14.54,0,0,1-2.79-.18,7.81,7.81,0,0,1-5.2-3,9.6,9.6,0,0,1-1.3-5,45.34,45.34,0,0,1,.56-5,10.53,10.53,0,0,0,8.17,1.68,19.15,19.15,0,0,0,7.62-3.53c5-3.91,8.17-9.85,11-15.42a215.3,215.3,0,0,0,8.73-21.36q3.62-10,6.69-20.07c-3.72,7.62-11,19.69-19.32,19.69-.74,0-8,.93-9.48-13.18-2-19.14,16.54-53.69,31.58-53.69a12.51,12.51,0,0,1,9.48,4.46c.55-1.67,1.11-3.35,1.67-5a5.16,5.16,0,0,1,1.11-2.23Zm-7.24,23.41q1.67-6.14,3.34-12.26a8.38,8.38,0,0,0-3.71-.93c-13.38,0-30.47,38.45-24.9,47.55,4.28,6.69,19.88-19.32,21.92-22.85,1.12-3.71,2.23-7.43,3.16-11.14Z"/><path class="cls-2" d="M389.33,77.45s0,.19,3.71.19c-3.71,8.73-23.21,38.64-39,38.64-13,0-17.47-13.19-15.42-26,2.6-16.35,15.42-41.8,34.36-41.8,8.73,0,11,7.43,10.22,10.78V60c-1.12,3.72-8.17,24.15-21.36,29.91-6.5,3-10.78-4.46-10.78-4.46,8.55.74,21.37-16.9,25.08-25.45h-1.67c-16,0-35.11,37.53-20.25,47.93C371.87,106.62,389,78.2,389,78.2Z"/><path class="cls-2" d="M480,76.15s-14.49,38.08-29.72,38.08c-18.21,0-8-31.2,1.67-49.78C440.78,73,432.61,83,421.46,110.52v0s-8.54-1.12-8.54-9.29c0-7.06,8.54-28.24,14.86-40.68l-.74.93-1.12.55c-10,8-20.43,23.41-31,45.14-1.11,2.42-2.41,5-3.72,7.81v.18c.19.93-8.35-.74-9.1-5.76a30.41,30.41,0,0,1,.37-8.91c1.12-19.88,18.39-52.94,22.48-52.94,5.76,0,9.1,5,9.1,5-4.83,3-15.23,25.82-19.13,41.05a89.47,89.47,0,0,1,38.45-42.72h.37c3.35,0,8.92,2,8,3.72C433,68.91,428,80.43,425,89.16c9.29-18.58,21.55-29.91,35.48-37.53h1.12c5.76,0,9.1,5,9.1,5-7.24,4.64-25.82,50.52-17.09,50.52,5.57,0,22.11-30.46,22.11-30.46Z"/><path class="cls-1" d="M314,14.06v0A47.58,47.58,0,0,0,280.12,0h0a47.62,47.62,0,0,0-33.85,14,.08.08,0,0,1-.05,0l-6.78,6.8-6.8-6.8A47.89,47.89,0,0,0,152,37.45h5.58a42.51,42.51,0,0,1,71.23-19.57l8.7,8.71a2.79,2.79,0,0,0,3.84,0L250,17.92l.05-.05a42.53,42.53,0,0,1,60.08,0s0,0,.05,0a42.19,42.19,0,0,1,11.1,19.54h5.57A47.64,47.64,0,0,0,314,14.06ZM239.42,148.74l-25.8-25.8h-7.69l31.56,31.56a2.77,2.77,0,0,0,1.93.79,2.73,2.73,0,0,0,1.91-.79l31.56-31.56h-7.67Z"/></g></g></svg>