<svg xmlns="http://www.w3.org/2000/svg" viewBox="0 0 257.04 89.82"><defs><style>.cls-1{fill:#fff;}</style></defs><title>logo-negativo</title><g id="Camada_2" data-name="Camada 2"><g id="Camada_1-2" data-name="Camada 1"><path class="cls-1" d="M18.36,57.56a.78.78,0,0,1-.64-.36L3.18,37.71V56.83c0,.49-.25.73-.76.73H.73A.64.64,0,0,1,0,56.83V33.59A.81.81,0,0,1,.2,33a.69.69,0,0,1,.53-.21H3a.85.85,0,0,1,.71.36L17.84,52V33.44a.66.66,0,0,1,.73-.61h1.69a.83.83,0,0,1,.55.2.61.61,0,0,1,.26.53V56.83c0,.49-.27.73-.81.73Z"/><path class="cls-1" d="M28.38,57a1,1,0,0,1-.33.45.88.88,0,0,1-.55.16H25.74c-.52,0-.77-.19-.77-.58a1,1,0,0,1,0-.19.59.59,0,0,1,0-.14.34.34,0,0,1,0-.12l9.61-23.09.08-.19a.86.86,0,0,1,.13-.2.83.83,0,0,1,.25-.16,1.17,1.17,0,0,1,.42-.06h1.1a1.18,1.18,0,0,1,.41.06.91.91,0,0,1,.24.16.86.86,0,0,1,.13.2c0,.07.06.14.09.19L47,56.53c0,.06,0,.11,0,.17l0,.16a.6.6,0,0,1,0,.12c0,.39-.26.58-.77.58H44.57A.85.85,0,0,1,44,57.4a1,1,0,0,1-.34-.45l-1.83-4.58H30.17L29.1,55.05C28.78,55.85,28.54,56.48,28.38,57Zm3.12-7.82h9.08l-4.5-11.39Z"/><path class="cls-1" d="M72.81,24.17c2.49-1.29,7.26,1.4,6.47,2.29-1.2,1.29-1.69,3.78-2.19,5.37L75,38.1c-2.09,6.27-4.08,12.63-6.17,18.9a148.33,148.33,0,0,1-6.66,18.2C59.38,81,54.41,89.82,47.05,89.82a8.23,8.23,0,0,1-1.49-.09,4.19,4.19,0,0,1-2.79-1.6,5.11,5.11,0,0,1-.69-2.68,24.56,24.56,0,0,1,.29-2.69,5.63,5.63,0,0,0,4.38.9,10.31,10.31,0,0,0,4.08-1.89c2.69-2.09,4.38-5.27,5.87-8.26a114.22,114.22,0,0,0,4.67-11.44q2-5.37,3.58-10.74c-2,4.08-5.86,10.54-10.34,10.54-.4,0-4.28.5-5.07-7.06-1.1-10.24,8.85-28.75,16.91-28.75a6.68,6.68,0,0,1,5.07,2.39l.9-2.69c.09-.29.29-1,.59-1.19ZM68.93,36.71l1.79-6.57a4.48,4.48,0,0,0-2-.5c-7.16,0-16.31,20.6-13.32,25.47,2.28,3.58,10.64-10.35,11.73-12.24.6-2,1.2-4,1.69-6Z"/><path class="cls-1" d="M108.33,41.48s-7.76,20.39-15.92,20.39c-4.48,0-5.77-3.58-5.37-8.35-2,4-5.17,8.65-9,8.75-.4,0-4.18.6-5.18-7-1.39-10.25,7.86-29,15.92-29.35,3.38-.1,6.07,2.69,7,5.28,1.29-1.89,2.39-3.09,3-3.09a6.37,6.37,0,0,1,4.87,2.69c-3.88,2.48-13.83,27.05-9.15,27.05,3,0,11.84-16.31,11.84-16.31Zm-19.4,4.18A69.5,69.5,0,0,1,95.2,31.83a6.59,6.59,0,0,0-3.88-1.89C85.45,29.94,75.4,51,79.08,55.71c2.09,2.68,7.26-5.57,9.75-10.05Z"/><path class="cls-1" d="M128.52,26.76c2.09-.5,5.47,1.19,5.07,1.59a24,24,0,0,0-6.86,16.31,3.66,3.66,0,0,1-3.48-3.88,24.54,24.54,0,0,1,1.29-6.56c-5.07,3.18-10.74,12.73-15.22,28l-.2.6c-.59,0-1.29.1-1.69.1a4.66,4.66,0,0,1-2.59-.5,3.56,3.56,0,0,1-1.19-1.19,9.82,9.82,0,0,1-1.09-3.29,27.72,27.72,0,0,1-.1-2.88c.1-1.09.2-2.19.4-3.28s.49-2.39.79-3.58.7-2.39,1.1-3.58.89-2.39,1.39-3.59,1-2.38,1.49-3.58,1-2.19,1.49-3.28,1-1.89,1.49-2.79l1.5-2.38a9.8,9.8,0,0,1,1.29-1.69,4,4,0,0,1,1-.8h.3a6.38,6.38,0,0,1,4.88,2.69c-.5-.2-3.78,5.27-4.08,5.77a68.25,68.25,0,0,0-4.78,11.44,48.1,48.1,0,0,0-1.39,6.26c4.88-11.93,10.55-21.19,18.4-26a2.18,2.18,0,0,1,.8-.5c.1,0,.2-.1.3-.1v.1Z"/><path class="cls-1" d="M163.43,41.48s-7.75,20.39-15.91,20.39c-4.48,0-5.77-3.58-5.37-8.35-2,4-5.18,8.65-9,8.75-.4,0-4.18.6-5.18-7-1.39-10.25,7.86-29,15.92-29.35,3.38-.1,6.07,2.69,7,5.28,1.29-1.89,2.39-3.09,3-3.09a6.37,6.37,0,0,1,4.87,2.69c-3.88,2.48-13.83,27.05-9.15,27.05,3,0,11.84-16.31,11.84-16.31ZM144,45.66a70.09,70.09,0,0,1,6.26-13.83,6.53,6.53,0,0,0-3.88-1.89c-5.86,0-15.91,21.09-12.23,25.77,2.09,2.68,7.26-5.57,9.75-10.05Z"/><path class="cls-1" d="M181,24.17c2.49-1.29,7.26,1.4,6.47,2.29-1.2,1.29-1.69,3.78-2.19,5.37l-2.09,6.27c-2.09,6.27-4.08,12.63-6.17,18.9a148.33,148.33,0,0,1-6.66,18.2c-2.79,5.77-7.76,14.62-15.12,14.62a8.23,8.23,0,0,1-1.49-.09,4.19,4.19,0,0,1-2.79-1.6,5.11,5.11,0,0,1-.69-2.68,24.56,24.56,0,0,1,.29-2.69,5.63,5.63,0,0,0,4.38.9,10.31,10.31,0,0,0,4.08-1.89c2.69-2.09,4.38-5.27,5.87-8.26a114.22,114.22,0,0,0,4.67-11.44q2-5.37,3.58-10.74c-2,4.08-5.86,10.54-10.34,10.54-.4,0-4.28.5-5.07-7.06-1.1-10.24,8.85-28.75,16.91-28.75a6.7,6.7,0,0,1,5.07,2.39c.3-.89.6-1.79.89-2.69.1-.29.3-1,.6-1.19Zm-3.88,12.54L179,30.14a4.48,4.48,0,0,0-2-.5c-7.16,0-16.31,20.6-13.33,25.47,2.29,3.58,10.65-10.35,11.74-12.24.6-2,1.2-4,1.69-6Z"/><path class="cls-1" d="M208.5,41.48s0,.1,2,.1c-2,4.68-12.44,20.69-20.89,20.69-7,0-9.35-7.06-8.26-13.93C182.73,39.59,189.6,26,199.74,26c4.68,0,5.87,4,5.47,5.77v.4c-.59,2-4.37,12.93-11.43,16-3.49,1.59-5.77-2.39-5.77-2.39,4.57.4,11.44-9,13.42-13.63h-.89c-8.55,0-18.8,20.09-10.84,25.66,9.45-.69,18.6-15.91,18.6-15.91Z"/><path class="cls-1" d="M257,40.78s-7.76,20.4-15.91,20.4c-9.75,0-4.28-16.71.89-26.66-6,4.57-10.34,9.95-16.31,24.67v0s-4.58-.6-4.58-5c0-3.78,4.58-15.12,8-21.78l-.4.5-.6.3c-5.37,4.27-10.94,12.53-16.61,24.17-.59,1.29-1.29,2.68-2,4.17v.1c.1.5-4.47-.39-4.87-3.08a16,16,0,0,1,.2-4.77c.6-10.65,9.85-28.35,12-28.35a6.38,6.38,0,0,1,4.88,2.68c-2.59,1.59-8.16,13.83-10.25,22a47.88,47.88,0,0,1,20.59-22.88h.2c1.79,0,4.78,1.09,4.28,2a93.69,93.69,0,0,0-9,18.5c5-10,11.54-16,19-20.1h.59a6.38,6.38,0,0,1,4.88,2.69c-3.88,2.49-13.83,27.06-9.15,27.06,3,0,11.83-16.32,11.83-16.32Z"/><path class="cls-1" d="M168.17,7.53h0A25.47,25.47,0,0,0,150,0h0a25.52,25.52,0,0,0-18.13,7.49l0,0-3.63,3.64-3.64-3.64A25.66,25.66,0,0,0,81.39,20.05h3a22.44,22.44,0,0,1,6-10.47,22.78,22.78,0,0,1,32.19,0l4.67,4.66a1.48,1.48,0,0,0,2.05,0l4.65-4.64,0,0a22.77,22.77,0,0,1,32.17,0l0,0a22.66,22.66,0,0,1,5.94,10.46h3A25.57,25.57,0,0,0,168.17,7.53ZM128.22,79.66,114.4,65.84h-4.12l16.91,16.9a1.46,1.46,0,0,0,2.05,0l16.9-16.9H142Z"/></g></g></svg>